<svg xmlns="http://www.w3.org/2000/svg" version="1.1" xmlns:xlink="http://www.w3.org/1999/xlink" width="512" height="512" x="0" y="0" viewBox="0 0 512 512" style="enable-background:new 0 0 512 512" xml:space="preserve" class=""><g><path d="M64 400H40a8 8 0 0 0 0 16h24a8 8 0 0 0 0-16ZM96 400h-8a8 8 0 0 0 0 16h8a8 8 0 0 0 0-16Z" fill="#0e89d0" opacity="1" data-original="#000000"></path><path d="M472 168h-16v-64a32.042 32.042 0 0 0-32-32H88a32.036 32.036 0 0 0-32 32v144H40a32.036 32.036 0 0 0-32 32v128a32.036 32.036 0 0 0 32 32h80a32.042 32.042 0 0 0 32-32v-24h69.75l-4 16H192a8 8 0 0 0-8 8v24a8 8 0 0 0 8 8h280a32.042 32.042 0 0 0 32-32V200a32.042 32.042 0 0 0-32-32ZM136 408a16.021 16.021 0 0 1-16 16H40a16.021 16.021 0 0 1-16-16V280a16.021 16.021 0 0 1 16-16h10.23l6.18 18.53A8 8 0 0 0 64 288h32a8 8 0 0 0 7.59-5.47l6.18-18.53H120a16.021 16.021 0 0 1 16 16ZM67.1 264h25.8l-2.67 8H69.77ZM152 368v-24h144v24Zm144 16v16h-1.75l-4-16Zm-18.25 16h-43.5l4-16h35.5ZM200 424v-8h97.01a31.971 31.971 0 0 0 3.3 8Zm96-224v128H152v-48a32.042 32.042 0 0 0-32-32H72V104a16.021 16.021 0 0 1 16-16h336a16.021 16.021 0 0 1 16 16v64H328a32.042 32.042 0 0 0-32 32Zm192 208a16.021 16.021 0 0 1-16 16H328a16.021 16.021 0 0 1-16-16V200a16.021 16.021 0 0 1 16-16h144a16.021 16.021 0 0 1 16 16Z" fill="#0e89d0" opacity="1" data-original="#000000"></path><path d="M472 192H328a8 8 0 0 0-8 8v184a8 8 0 0 0 8 8h144a8 8 0 0 0 8-8V200a8 8 0 0 0-8-8Zm-8 184H336V208h128Z" fill="#0e89d0" opacity="1" data-original="#000000"></path><circle cx="392" cy="408" r="8" fill="#0e89d0" opacity="1" data-original="#000000"></circle></g></svg>