<svg xmlns="http://www.w3.org/2000/svg" version="1.1" xmlns:xlink="http://www.w3.org/1999/xlink" width="512" height="512" x="0" y="0" viewBox="0 0 64 64" style="enable-background:new 0 0 512 512" xml:space="preserve" class=""><g><g fill="#000"><path d="M32 43a2 2 0 0 1-2-2v-7h-7a2 2 0 1 1 0-4h7v-7a2 2 0 1 1 4 0v7h7a2 2 0 1 1 0 4h-7v7a2 2 0 0 1-2 2z" fill="#ffffff" opacity="1" data-original="#000000" class=""></path><path fill-rule="evenodd" d="M18 2C9.163 2 2 9.163 2 18v28c0 8.837 7.163 16 16 16h28c8.837 0 16-7.163 16-16V20.607a8 8 0 0 0-2.542-5.848L48.094 4.152A8 8 0 0 0 42.635 2zM6 18c0-6.627 5.373-12 12-12h24v6a8 8 0 0 0 8 8h7.954c.03.2.046.403.046.607V46c0 6.627-5.373 12-12 12H18c-6.627 0-12-5.373-12-12zm40-6V7.67L54.926 16H50a4 4 0 0 1-4-4z" clip-rule="evenodd" fill="#ffffff" opacity="1" data-original="#000000" class=""></path></g></g></svg>